<?xml version="1.0" encoding="UTF-8"?><svg id="Layer_1" xmlns="http://www.w3.org/2000/svg" viewBox="0 0 894.05 47.16"><defs><style>.cls-1{fill:lime;}</style></defs><path d="m0,46.56V3.36h7.5v17.28h11.94V3.36h7.5v43.2h-7.5v-19.02H7.5v19.02H0Z"/><path d="m36.48,9.9V3.36h26.04v6.54h-9.24v30.12h9.24v6.54h-26.04v-6.54h9.24V9.9h-9.24Z"/><path d="m80.46,42.9c0-1.16.39-2.11,1.17-2.85.78-.74,1.81-1.11,3.09-1.11h1.56c1.28,0,2.31.37,3.09,1.11.78.74,1.17,1.71,1.17,2.91s-.4,2.15-1.2,2.85c-.8.7-1.84,1.05-3.12,1.05h-1.5c-1.28,0-2.31-.36-3.09-1.08-.78-.72-1.17-1.68-1.17-2.88Zm.96-39.54h8.16v8.22l-1.32,21h-5.52l-1.32-21V3.36Z"/><path d="m144.48,9.9V3.36h26.04v6.54h-9.24v30.12h9.24v6.54h-26.04v-6.54h9.24V9.9h-9.24Z"/><path d="m198.9,0l-7.8,18.66h-6.6l4.8-18.66h9.6Z"/><path d="m223.68,3.36l4.5,13.74c.2.6.38,1.25.54,1.95.16.7.3,1.37.42,2.01.12.72.22,1.44.3,2.16h.48c.08-.72.2-1.44.36-2.16.08-.64.19-1.31.33-2.01.14-.7.31-1.35.51-1.95l4.14-13.74h9v43.2h-6.72v-28.02c0-1.08.05-2.21.15-3.39.1-1.18.19-2.25.27-3.21.12-1.16.26-2.28.42-3.36h-.78c-.24,1.04-.48,2.08-.72,3.12-.2.92-.43,1.88-.69,2.88-.26,1-.53,1.9-.81,2.7l-3,10.26h-5.64l-3.18-10.26c-.28-.88-.56-1.82-.84-2.82-.28-1-.52-1.94-.72-2.82-.24-1.04-.48-2.06-.72-3.06h-.66c.16,1.08.3,2.2.42,3.36.12.96.22,2.03.3,3.21.08,1.18.12,2.31.12,3.39v28.02h-6.66V3.36h8.88Z"/><path class="cls-1" d="m286.8,35.1h7.68c.08,1.72.76,3.07,2.04,4.05,1.28.98,3,1.47,5.16,1.47s3.96-.5,5.16-1.5c1.2-1,1.8-2.34,1.8-4.02,0-1.48-.46-2.77-1.38-3.87-.92-1.1-2.18-1.87-3.78-2.31l-4.74-1.38c-3.68-1-6.45-2.58-8.31-4.74-1.86-2.16-2.79-4.86-2.79-8.1,0-1.8.33-3.44.99-4.92.66-1.48,1.59-2.74,2.79-3.78,1.2-1.04,2.66-1.85,4.38-2.43,1.72-.58,3.66-.87,5.82-.87,4.12,0,7.42,1.06,9.9,3.18,2.48,2.12,3.82,5,4.02,8.64h-7.62c-.08-1.64-.7-2.92-1.86-3.84-1.16-.92-2.7-1.38-4.62-1.38s-3.45.47-4.59,1.41c-1.14.94-1.71,2.21-1.71,3.81,0,1.32.42,2.46,1.26,3.42.84.96,2.14,1.7,3.9,2.22l5.04,1.44c3.52,1,6.21,2.61,8.07,4.83,1.86,2.22,2.79,4.99,2.79,8.31,0,1.88-.35,3.58-1.05,5.1-.7,1.52-1.69,2.82-2.97,3.9-1.28,1.08-2.82,1.92-4.62,2.52-1.8.6-3.82.9-6.06.9s-4.13-.29-5.91-.87c-1.78-.58-3.31-1.39-4.59-2.43-1.28-1.04-2.28-2.3-3-3.78s-1.12-3.14-1.2-4.98Z"/><path class="cls-1" d="m324.66,46.56V3.36h26.58v6.6h-19.08v11.1h16.98v6.6h-16.98v12.3h19.08v6.6h-26.58Z"/><path class="cls-1" d="m360,46.56V3.36h7.5v17.28h11.94V3.36h7.5v43.2h-7.5v-19.02h-11.94v19.02h-7.5Z"/><path class="cls-1" d="m404.57,3.36h10.14l11.34,43.2h-7.74l-2.58-10.86h-12.54l-2.58,10.86h-7.68l11.64-43.2Zm9.72,26.4l-3.66-15.42c-.16-.72-.31-1.44-.45-2.16-.14-.72-.25-1.36-.33-1.92-.08-.64-.16-1.28-.24-1.92h-.3c-.08.64-.16,1.28-.24,1.92-.08.56-.18,1.2-.3,1.92-.12.72-.28,1.44-.48,2.16l-3.66,15.42h9.66Z"/><path class="cls-1" d="m440.87,3.36l10.38,28.74c.24.64.45,1.38.63,2.22.18.84.35,1.64.51,2.4.16.92.3,1.84.42,2.76h.72c-.16-1.2-.29-2.26-.39-3.18-.1-.92-.2-1.94-.3-3.06-.1-1.12-.15-2.2-.15-3.24V3.36h6.66v43.2h-9.24l-10.2-28.8c-.28-.8-.52-1.62-.72-2.46-.2-.84-.36-1.64-.48-2.4-.16-.84-.3-1.68-.42-2.52h-.72c.12.96.24,1.98.36,3.06.08.92.16,1.93.24,3.03.08,1.1.12,2.23.12,3.39v26.7h-6.66V3.36h9.24Z"/><path class="cls-1" d="m500.45,3.36h6.48l2.46,29.88c.08.72.12,1.56.12,2.52s.02,1.88.06,2.76v3.18h.78c.04-1.08.08-2.14.12-3.18.04-.88.09-1.8.15-2.76.06-.96.13-1.8.21-2.52l3.6-29.88h6.24l3.42,29.88c.08.72.16,1.56.24,2.52s.14,1.88.18,2.76c.08,1.04.14,2.1.18,3.18h.84c0-1.08.02-2.14.06-3.18,0-.88,0-1.8.03-2.76.02-.96.07-1.8.15-2.52l2.34-29.88h6.42l-4.38,43.2h-8.7l-3.18-29.82c-.08-.92-.14-1.89-.18-2.91s-.06-1.97-.06-2.85v-3h-.9v3c-.04.88-.08,1.83-.12,2.85s-.12,1.99-.24,2.91l-3.48,29.82h-8.58l-4.26-43.2Z"/><path class="cls-1" d="m540.65,46.56V3.36h26.58v6.6h-19.08v11.1h16.98v6.6h-16.98v12.3h19.08v6.6h-26.58Z"/><path class="cls-1" d="m576.65,46.56V3.36h26.58v6.6h-19.08v11.1h16.98v6.6h-16.98v12.3h19.08v6.6h-26.58Z"/><path class="cls-1" d="m626.15,3.36c2.16,0,4.13.31,5.91.93,1.78.62,3.3,1.49,4.56,2.61,1.26,1.12,2.23,2.48,2.91,4.08.68,1.6,1.02,3.38,1.02,5.34,0,2.88-.72,5.34-2.16,7.38-1.44,2.04-3.42,3.52-5.94,4.44l8.7,18.42h-8.28l-7.8-17.28h-5.58v17.28h-7.5V3.36h14.16Zm-6.66,19.86h6.66c2.08,0,3.73-.6,4.95-1.8,1.22-1.2,1.83-2.82,1.83-4.86s-.62-3.74-1.86-4.98c-1.24-1.24-2.88-1.86-4.92-1.86h-6.66v13.5Z"/><path class="cls-1" d="m656.57,3.36h10.14l11.34,43.2h-7.74l-2.58-10.86h-12.54l-2.58,10.86h-7.68l11.64-43.2Zm9.72,26.4l-3.66-15.42c-.16-.72-.31-1.44-.45-2.16-.14-.72-.25-1.36-.33-1.92-.08-.64-.16-1.28-.24-1.92h-.3c-.08.64-.16,1.28-.24,1.92-.08.56-.18,1.2-.3,1.92-.12.72-.28,1.44-.48,2.16l-3.66,15.42h9.66Z"/><path class="cls-1" d="m682.79,35.1h7.68c.08,1.72.76,3.07,2.04,4.05,1.28.98,3,1.47,5.16,1.47s3.96-.5,5.16-1.5c1.2-1,1.8-2.34,1.8-4.02,0-1.48-.46-2.77-1.38-3.87-.92-1.1-2.18-1.87-3.78-2.31l-4.74-1.38c-3.68-1-6.45-2.58-8.31-4.74-1.86-2.16-2.79-4.86-2.79-8.1,0-1.8.33-3.44.99-4.92.66-1.48,1.59-2.74,2.79-3.78,1.2-1.04,2.66-1.85,4.38-2.43,1.72-.58,3.66-.87,5.82-.87,4.12,0,7.42,1.06,9.9,3.18,2.48,2.12,3.82,5,4.02,8.64h-7.62c-.08-1.64-.7-2.92-1.86-3.84-1.16-.92-2.7-1.38-4.62-1.38s-3.45.47-4.59,1.41c-1.14.94-1.71,2.21-1.71,3.81,0,1.32.42,2.46,1.26,3.42.84.96,2.14,1.7,3.9,2.22l5.04,1.44c3.52,1,6.21,2.61,8.07,4.83,1.86,2.22,2.79,4.99,2.79,8.31,0,1.88-.35,3.58-1.05,5.1-.7,1.52-1.69,2.82-2.97,3.9-1.28,1.08-2.82,1.92-4.62,2.52-1.8.6-3.82.9-6.06.9s-4.13-.29-5.91-.87c-1.78-.58-3.31-1.39-4.59-2.43-1.28-1.04-2.28-2.3-3-3.78s-1.12-3.14-1.2-4.98Z"/><path class="cls-1" d="m720.65,46.56V3.36h26.58v6.6h-19.08v11.1h16.98v6.6h-16.98v12.3h19.08v6.6h-26.58Z"/><path class="cls-1" d="m763.55,3.36v17.52h5.52l8.28-17.52h8.34l-10.02,20.7,10.5,22.5h-8.46l-8.64-18.9h-5.52v18.9h-7.56V3.36h7.56Z"/><path class="cls-1" d="m800.57,3.36h10.14l11.34,43.2h-7.74l-2.58-10.86h-12.54l-2.58,10.86h-7.68l11.64-43.2Zm9.72,26.4l-3.66-15.42c-.16-.72-.31-1.44-.45-2.16-.14-.72-.25-1.36-.33-1.92-.08-.64-.16-1.28-.24-1.92h-.3c-.08.64-.16,1.28-.24,1.92-.08.56-.18,1.2-.3,1.92-.12.72-.28,1.44-.48,2.16l-3.66,15.42h9.66Z"/><path class="cls-1" d="m842.15,3.36c2.16,0,4.13.31,5.91.93,1.78.62,3.3,1.49,4.56,2.61,1.26,1.12,2.23,2.48,2.91,4.08.68,1.6,1.02,3.38,1.02,5.34,0,2.88-.72,5.34-2.16,7.38-1.44,2.04-3.42,3.52-5.94,4.44l8.7,18.42h-8.28l-7.8-17.28h-5.58v17.28h-7.5V3.36h14.16Zm-6.66,19.86h6.66c2.08,0,3.73-.6,4.95-1.8,1.22-1.2,1.83-2.82,1.83-4.86s-.62-3.74-1.86-4.98c-1.24-1.24-2.88-1.86-4.92-1.86h-6.66v13.5Z"/><path class="cls-1" d="m872.57,3.36h10.14l11.34,43.2h-7.74l-2.58-10.86h-12.54l-2.58,10.86h-7.68l11.64-43.2Zm9.72,26.4l-3.66-15.42c-.16-.72-.31-1.44-.45-2.16-.14-.72-.25-1.36-.33-1.92-.08-.64-.16-1.28-.24-1.92h-.3c-.08.64-.16,1.28-.24,1.92-.08.56-.18,1.2-.3,1.92-.12.72-.28,1.44-.48,2.16l-3.66,15.42h9.66Z"/></svg>
